<svg width="120" height="96" viewBox="0 0 120 96" fill="none" xmlns="http://www.w3.org/2000/svg">
<path fill-rule="evenodd" clip-rule="evenodd" d="M23.7719 0.0599391H96.2282C98.8624 0.0598792 101.136 0.0598187 103.017 0.187879C104.998 0.32277 106.98 0.619401 108.938 1.42839C113.352 3.25299 116.86 6.75279 118.688 11.1578C119.499 13.1109 119.796 15.0879 119.932 17.0644C120.06 18.9416 120.06 21.2097 120.06 23.8383V72.1618C120.06 74.7901 120.06 77.0583 119.932 78.9357C119.796 80.9121 119.499 82.889 118.688 84.8426C116.86 89.2471 113.352 92.7473 108.938 94.5714C106.98 95.3804 104.998 95.677 103.017 95.8124C101.136 95.9401 98.8624 95.9401 96.2282 95.9401H23.7718C21.1373 95.9401 18.8641 95.9401 16.9827 95.8124C15.0017 95.677 13.0203 95.3804 11.0628 94.5714C6.64787 92.7473 3.14018 89.2471 1.31147 84.8426C0.500664 82.889 0.203367 80.9121 0.0681717 78.9357C-0.0601767 77.0583 -0.0601161 74.7901 -0.060056 72.1618V23.8383C-0.0601161 21.2097 -0.0601767 18.9416 0.0681717 17.0644C0.203367 15.0879 0.500664 13.1109 1.31147 11.1578C3.14018 6.75279 6.64787 3.25299 11.0628 1.42839C13.0203 0.619401 15.0017 0.32277 16.9827 0.187879C18.8641 0.0598187 21.1374 0.0598792 23.7719 0.0599391ZM13.8586 13.7095C16.0429 11.2188 19.8372 10.9664 22.3336 13.1458L56.045 42.5768C58.3093 44.5537 61.6907 44.5537 63.9549 42.5768L97.6667 13.1458C100.163 10.9664 103.957 11.2188 106.141 13.7095C108.326 16.2002 108.073 19.9861 105.577 22.1654L71.8649 51.5967C65.0715 57.5275 54.9285 57.5275 48.1351 51.5967L14.4236 22.1654C11.9273 19.9861 11.6743 16.2002 13.8586 13.7095Z" fill="#323232"/>
</svg>
