<svg width="533" height="667" viewBox="0 0 533 667" fill="none" xmlns="http://www.w3.org/2000/svg">
<path d="M433.333 233.333V166.667C433.333 73.3333 360 0 266.667 0C173.333 0 100 73.3333 100 166.667V233.333C43.3333 233.333 0 276.667 0 333.333V566.667C0 623.333 43.3333 666.667 100 666.667H433.333C490 666.667 533.333 623.333 533.333 566.667V333.333C533.333 276.667 490 233.333 433.333 233.333ZM166.667 166.667C166.667 110 210 66.6667 266.667 66.6667C323.333 66.6667 366.667 110 366.667 166.667V233.333H166.667V166.667ZM303.333 450L300 453.333V500C300 520 286.667 533.333 266.667 533.333C246.667 533.333 233.333 520 233.333 500V453.333C213.333 433.333 210 403.333 230 383.333C250 363.333 280 360 300 380C320 396.667 323.333 430 303.333 450Z" fill="#323232"/>
</svg>
